<svg width="121" height="62" viewBox="0 0 121 62" fill="none" xmlns="http://www.w3.org/2000/svg">
<g clip-path="url(#clip0_203_2)">
<path d="M16.5053 2.08334C22.4495 1.9677 28.4033 2.02545 34.3336 2.18001C39.6732 2.28348 47.9406 3.11336 54.7585 2.84356C59.324 3.36152 63.935 2.51151 68.5303 3.15052C75.1044 3.0734 81.6613 2.08068 88.2596 2.44251C94.4564 2.79882 98.9828 2.94186 106.946 2.79538C114.842 2.24541 118.449 2.9037 117.893 10.5751C117.571 17.11 117.715 22.6957 117.707 27.6869C117.744 36.9118 119.159 54.352 117.102 57.142C113.954 61.1853 106.485 58.2895 101.843 58.3792C97.59 58.2262 91.6007 59.5554 87.4186 58.424C82.2132 57.7066 78.6576 59.1278 73.4299 58.7499C68.1351 58.7499 62.9908 57.8491 57.8896 59.0824C51.6125 59.9114 43.6138 59.7698 37.4096 58.5381C31.1784 57.575 26.7811 58.4698 20.5135 58.4019C15.4166 58.3496 4.47495 60.2767 2.80182 58.3645C0.937174 56.3916 2.39181 45.7981 2.33474 41.677C1.93554 31.8345 1.763 25.0336 2.47244 15.199C2.56419 13.478 1.26301 6.21619 2.48786 4.30781C5.06337 0.498876 12.3623 2.61452 16.5053 2.08334Z" stroke="#191C36" stroke-width="3.2" stroke-miterlimit="10" stroke-linecap="round" stroke-linejoin="round"/>
</g>
<defs>
<clipPath id="clip0_203_2">
<rect width="120.092" height="61.3479" fill="white"/>
</clipPath>
</defs>
</svg>
