<svg width="121" height="62" viewBox="0 0 121 62" fill="none" xmlns="http://www.w3.org/2000/svg">
<g clip-path="url(#clip0_201_2)">
<path d="M16.5055 2.08334C22.4497 1.9677 28.4035 2.02545 34.3339 2.18001C39.6735 2.28348 47.9408 3.11336 54.7588 2.84356C59.3243 3.36152 63.9352 2.51151 68.5305 3.15052C75.1047 3.0734 81.6615 2.08068 88.2598 2.44251C94.4567 2.79882 98.983 2.94186 106.946 2.79538C114.842 2.24541 118.449 2.9037 117.894 10.5751C117.571 17.11 117.716 22.6957 117.707 27.6869C117.744 36.9118 119.159 54.352 117.103 57.142C113.954 61.1853 106.485 58.2895 101.843 58.3792C97.5902 58.2262 91.6009 59.5554 87.4188 58.424C82.2134 57.7066 78.6578 59.1278 73.4301 58.7499C68.1354 58.7499 62.9911 57.8491 57.8898 59.0824C51.6128 59.9114 43.614 59.7698 37.4099 58.5381C31.1786 57.575 26.7813 58.4698 20.5137 58.4019C15.4168 58.3496 4.47519 60.2767 2.80206 58.3645C0.937418 56.3916 2.39205 45.7981 2.33499 41.677C1.93578 31.8345 1.76324 25.0336 2.47268 15.199C2.56443 13.478 1.26326 6.21619 2.48811 4.30781C5.06361 0.498876 12.3625 2.61452 16.5055 2.08334Z" stroke="#191C36" stroke-width="3.2" stroke-miterlimit="10" stroke-linecap="round" stroke-linejoin="round"/>
<rect x="3" y="3" width="114" height="55" fill="#191C36"/>
</g>
<defs>
<clipPath id="clip0_201_2">
<rect width="120.092" height="61.3479" fill="white"/>
</clipPath>
</defs>
</svg>
